<svg width="22" height="11" viewBox="0 0 22 11" fill="none" xmlns="http://www.w3.org/2000/svg">
<mask id="path-1-outside-1_140_228" maskUnits="userSpaceOnUse" x="0" y="-0.5" width="22" height="12" fill="black">
<rect fill="white" y="-0.5" width="22" height="12"/>
<path d="M9.19859 5.82889L0.842493 10.0848V8.42395L7.25229 5.33583L7.20039 5.43963V5.18012L7.25229 5.28393L0.842493 2.1958V0.534965L9.19859 4.79087V5.82889ZM21.2413 5.82889L12.8852 10.0848V8.42395L19.295 5.33583L19.2431 5.43963V5.18012L19.295 5.28393L12.8852 2.1958V0.534965L21.2413 4.79087V5.82889Z"/>
</mask>
<path d="M9.19859 5.82889L0.842493 10.0848V8.42395L7.25229 5.33583L7.20039 5.43963V5.18012L7.25229 5.28393L0.842493 2.1958V0.534965L9.19859 4.79087V5.82889ZM21.2413 5.82889L12.8852 10.0848V8.42395L19.295 5.33583L19.2431 5.43963V5.18012L19.295 5.28393L12.8852 2.1958V0.534965L21.2413 4.79087V5.82889Z" fill="#F31537"/>
<path d="M9.19859 5.82889L9.33678 6.10021L9.50308 6.01552V5.82889H9.19859ZM0.842493 10.0848H0.538006V10.5816L0.980683 10.3561L0.842493 10.0848ZM0.842493 8.42395L0.710335 8.14964L0.538006 8.23266V8.42395H0.842493ZM7.25229 5.33583L7.52464 5.472L7.92337 4.67453L7.12014 5.06152L7.25229 5.33583ZM7.20039 5.43963H6.89591L7.47273 5.5758L7.20039 5.43963ZM7.20039 5.18012L7.47273 5.04395L6.89591 5.18012H7.20039ZM7.25229 5.28393L7.12014 5.55824L7.92337 5.94522L7.52464 5.14776L7.25229 5.28393ZM0.842493 2.1958H0.538006V2.38709L0.710335 2.47012L0.842493 2.1958ZM0.842493 0.534966L0.980683 0.263642L0.538006 0.0381794V0.534966H0.842493ZM9.19859 4.79087H9.50308V4.60424L9.33678 4.51954L9.19859 4.79087ZM9.0604 5.55757L0.704304 9.81347L0.980683 10.3561L9.33678 6.10021L9.0604 5.55757ZM1.14698 10.0848V8.42395H0.538006V10.0848H1.14698ZM0.974651 8.69826L7.38445 5.61014L7.12014 5.06152L0.710335 8.14964L0.974651 8.69826ZM6.97995 5.19966L6.92805 5.30346L7.47273 5.5758L7.52464 5.472L6.97995 5.19966ZM7.50488 5.43963V5.18012H6.89591V5.43963H7.50488ZM6.92805 5.3163L6.97995 5.4201L7.52464 5.14776L7.47273 5.04395L6.92805 5.3163ZM7.38445 5.00962L0.974651 1.92149L0.710335 2.47012L7.12014 5.55824L7.38445 5.00962ZM1.14698 2.1958V0.534966H0.538006V2.1958H1.14698ZM0.704304 0.806288L9.0604 5.06219L9.33678 4.51954L0.980683 0.263642L0.704304 0.806288ZM8.8941 4.79087V5.82889H9.50308V4.79087H8.8941ZM21.2413 5.82889L21.3795 6.10021L21.5458 6.01552V5.82889H21.2413ZM12.8852 10.0848H12.5807V10.5816L13.0234 10.3561L12.8852 10.0848ZM12.8852 8.42395L12.753 8.14964L12.5807 8.23266V8.42395H12.8852ZM19.295 5.33583L19.5673 5.472L19.9661 4.67453L19.1628 5.06152L19.295 5.33583ZM19.2431 5.43963H18.9386L19.5154 5.5758L19.2431 5.43963ZM19.2431 5.18012L19.5154 5.04395L18.9386 5.18012H19.2431ZM19.295 5.28393L19.1628 5.55824L19.9661 5.94522L19.5673 5.14776L19.295 5.28393ZM12.8852 2.1958H12.5807V2.38709L12.753 2.47012L12.8852 2.1958ZM12.8852 0.534966L13.0234 0.263642L12.5807 0.0381794V0.534966H12.8852ZM21.2413 4.79087H21.5458V4.60424L21.3795 4.51954L21.2413 4.79087ZM21.1031 5.55757L12.747 9.81347L13.0234 10.3561L21.3795 6.10021L21.1031 5.55757ZM13.1897 10.0848V8.42395H12.5807V10.0848H13.1897ZM13.0174 8.69826L19.4272 5.61014L19.1628 5.06152L12.753 8.14964L13.0174 8.69826ZM19.0227 5.19966L18.9708 5.30346L19.5154 5.5758L19.5673 5.472L19.0227 5.19966ZM19.5476 5.43963V5.18012H18.9386V5.43963H19.5476ZM18.9708 5.3163L19.0227 5.4201L19.5673 5.14776L19.5154 5.04395L18.9708 5.3163ZM19.4272 5.00962L13.0174 1.92149L12.753 2.47012L19.1628 5.55824L19.4272 5.00962ZM13.1897 2.1958V0.534966H12.5807V2.1958H13.1897ZM12.747 0.806288L21.1031 5.06219L21.3795 4.51954L13.0234 0.263642L12.747 0.806288ZM20.9368 4.79087V5.82889H21.5458V4.79087H20.9368Z" fill="#F31537" mask="url(#path-1-outside-1_140_228)"/>
</svg>
